<svg width="150" height="150" xmlns="http://www.w3.org/2000/svg" viewBox="0 0 150 150"><path d="M 83.1 75 Q 88.5 52.05 75 29.099999999999994 Q 61.5 52.05 66.9 75 Z" fill="#FFB6C1" opacity="0.9"/><path d="M 79.05 82.01480577065395 Q 101.62528301685288 75.21634295108991 114.75056603370574 52.05 Q 88.12528301685288 51.83365704891008 70.95 67.98519422934605 Z" fill="#FFE5E5" opacity="0.9"/><path d="M 70.95 82.01480577065395 Q 88.12528301685288 98.16634295108992 114.75056603370575 97.94999999999999 Q 101.62528301685288 74.78365704891007 79.05 67.98519422934605 Z" fill="#FFB6C1" opacity="0.9"/><path d="M 66.9 75 Q 61.5 97.95 75 120.9 Q 88.5 97.95 83.1 75 Z" fill="#FFE5E5" opacity="0.9"/><path d="M 70.95 67.98519422934605 Q 48.37471698314713 74.78365704891009 35.24943396629427 97.95000000000002 Q 61.874716983147145 98.16634295108993 79.05 82.01480577065395 Z" fill="#FFB6C1" opacity="0.9"/><path d="M 79.05 67.98519422934605 Q 61.87471698314713 51.83365704891008 35.24943396629426 52.05 Q 48.37471698314713 75.21634295108991 70.95 82.01480577065395 Z" fill="#FFE5E5" opacity="0.9"/><line x1="75" y1="75" x2="75" y2="56.099999999999994" stroke="#90EE90" stroke-width="2" stroke-linecap="round"/><circle cx="75" cy="56.099999999999994" r="2.7" fill="#FFD700"/><line x1="75" y1="75" x2="91.3678801315259" y2="84.45" stroke="#90EE90" stroke-width="2" stroke-linecap="round"/><circle cx="91.3678801315259" cy="84.45" r="2.7" fill="#FFD700"/><line x1="75" y1="75" x2="58.632119868474106" y2="84.45" stroke="#90EE90" stroke-width="2" stroke-linecap="round"/><circle cx="58.632119868474106" cy="84.45" r="2.7" fill="#FFD700"/><circle cx="75" cy="75" r="4.7250000000000005" fill="#E6E6FA"/></svg>