<svg width="150" height="150" xmlns="http://www.w3.org/2000/svg" viewBox="0 0 150 150"><circle cx="114.9" cy="75" r="17.099999999999998" fill="#FF6B6B" opacity="0.85"/><circle cx="103.21356056934326" cy="103.21356056934324" r="17.099999999999998" fill="#FF6B6B" opacity="0.85"/><circle cx="75" cy="114.9" r="17.099999999999998" fill="#FF6B6B" opacity="0.85"/><circle cx="46.786439430656756" cy="103.21356056934326" r="17.099999999999998" fill="#FF6B6B" opacity="0.85"/><circle cx="35.099999999999994" cy="75" r="17.099999999999998" fill="#FF6B6B" opacity="0.85"/><circle cx="46.78643943065674" cy="46.786439430656756" r="17.099999999999998" fill="#FF6B6B" opacity="0.85"/><circle cx="74.99999999999999" cy="35.099999999999994" r="17.099999999999998" fill="#FF6B6B" opacity="0.85"/><circle cx="103.21356056934324" cy="46.78643943065674" r="17.099999999999998" fill="#FF6B6B" opacity="0.85"/><circle cx="98.6975100089145" cy="84.81583004016456" r="14.25" fill="#FFA07A" opacity="0.9"/><circle cx="84.81583004016456" cy="98.6975100089145" r="14.25" fill="#FFA07A" opacity="0.9"/><circle cx="65.18416995983544" cy="98.6975100089145" r="14.25" fill="#FFA07A" opacity="0.9"/><circle cx="51.302489991085494" cy="84.81583004016456" r="14.25" fill="#FFA07A" opacity="0.9"/><circle cx="51.302489991085494" cy="65.18416995983546" r="14.25" fill="#FFA07A" opacity="0.9"/><circle cx="65.18416995983543" cy="51.3024899910855" r="14.25" fill="#FFA07A" opacity="0.9"/><circle cx="84.81583004016456" cy="51.302489991085494" r="14.25" fill="#FFA07A" opacity="0.9"/><circle cx="98.69751000891449" cy="65.18416995983543" r="14.25" fill="#FFA07A" opacity="0.9"/><circle cx="86.4" cy="75" r="9.975000000000001" fill="#FFD93D"/><circle cx="78.5227937358744" cy="85.84204428576474" r="9.975000000000001" fill="#FFD93D"/><circle cx="65.7772062641256" cy="81.70075187613419" r="9.975000000000001" fill="#FFD93D"/><circle cx="65.7772062641256" cy="68.29924812386581" r="9.975000000000001" fill="#FFD93D"/><circle cx="78.5227937358744" cy="64.15795571423524" r="9.975000000000001" fill="#FFD93D"/><circle cx="75" cy="75" r="5.699999999999999" fill="#D4A574"/></svg>