<svg width="150" height="150" xmlns="http://www.w3.org/2000/svg" viewBox="0 0 150 150"><circle cx="79.4625" cy="46.95" r="15.299999999999999" fill="#D2691E" opacity="0.9"/><circle cx="70.5375" cy="46.95" r="15.299999999999999" fill="#D2691E" opacity="0.9"/><circle cx="103.05612361947726" cy="70.57616301174984" r="15.299999999999999" fill="#D2691E" opacity="0.9"/><circle cx="100.29814694468087" cy="62.0879836038156" r="15.299999999999999" fill="#D2691E" opacity="0.9"/><circle cx="87.87713798940567" cy="100.31591838057243" r="15.299999999999999" fill="#D2691E" opacity="0.9"/><circle cx="95.09761466420207" cy="95.06993500386211" r="15.299999999999999" fill="#D2691E" opacity="0.9"/><circle cx="54.90238533579793" cy="95.06993500386211" r="15.299999999999999" fill="#D2691E" opacity="0.9"/><circle cx="62.12286201059433" cy="100.31591838057243" r="15.299999999999999" fill="#D2691E" opacity="0.9"/><circle cx="49.70185305531914" cy="62.087983603815616" r="15.299999999999999" fill="#D2691E" opacity="0.9"/><circle cx="46.94387638052273" cy="70.57616301174986" r="15.299999999999999" fill="#D2691E" opacity="0.9"/><ellipse cx="66.075" cy="71.175" rx="11.475" ry="15.299999999999999" fill="#CD853F" transform="rotate(-40 66.075 71.175)"/><ellipse cx="83.925" cy="71.175" rx="11.475" ry="15.299999999999999" fill="#CD853F" transform="rotate(40 83.925 71.175)"/><ellipse cx="75" cy="82.65" rx="12.75" ry="10.2" fill="#CD853F"/><path d="M 85.2 75 L 83.90650121578693 79.53808903539651 L 80.7555931904479 82.92189440891948 L 76.49989365080573 84.46995580962619 L 72.10018452478549 83.92471434891372 L 68.50875974870749 81.49124025129251 L 66.4633167097347 77.77373654150954 L 66.33599787629946 73.6277568726671 L 68.06834239219545 69.9638559583581 L 71.20282346017844 67.5476214316885 L 75 66.84 L 78.61194841592783 67.91115209355735 L 81.27149974039459 70.44348872422874 L 82.4550715948121 73.81923265787634 L 81.98455905567161 77.26942080668961 L 80.04874241767195 80.04874241767195 L 77.14334187298464 81.59652799702319 L 73.94688318134918 81.64911790888647 L 71.16293787303474 80.28126293927966 L 69.36527474103276 77.8710359203529 L 68.88 75 L 69.72880540290161 72.31419220354084 L 71.6425706389054 70.37889492813031 L 74.1383589665584 69.55981262000198 L 76.63902613816471 69.9555962375705 L 78.60624458405138 71.3937554159486 L 79.65637270378107 73.48705279554027 L 79.63423369407238 75.73399050996878 L 78.63086827075477 77.63798021228861 L 76.94489530088423 78.81707194962297 L 75 79.08 L 73.24033282300951 78.4535412877541 L 72.02928959665519 77.15834744641796 L 71.57469683481607 75.54251472475953 L 71.89575153081262 73.99136853036018 L 72.83625324956917 72.83625324956917 L 74.11744746406515 72.28378258946104 L 75.4148642012867 72.3806505207417 L 76.43889829761197 73.01952639777012 L 76.99941864027869 73.98124531858446 L 77.04 75" fill="none" stroke="#DEB887" stroke-width="3.75" stroke-linecap="round"/><circle cx="75" cy="75" r="2.55" fill="#8B4513"/></svg>