<svg width="150" height="150" xmlns="http://www.w3.org/2000/svg" viewBox="0 0 150 150"><ellipse cx="123" cy="75" rx="8.25" ry="24" fill="#FFD54F" transform="rotate(90 123 75)"/><ellipse cx="118.24650565931611" cy="95.82641947764279" rx="8.25" ry="24" fill="#FFD54F" transform="rotate(115.71428571428572 118.24650565931611 95.82641947764279)"/><ellipse cx="104.92751048921922" cy="112.52791115846543" rx="8.25" ry="24" fill="#FFD54F" transform="rotate(141.42857142857144 104.92751048921922 112.52791115846543)"/><ellipse cx="85.68100482990309" cy="121.79653978472754" rx="8.25" ry="24" fill="#FFD54F" transform="rotate(167.14285714285717 85.68100482990309 121.79653978472754)"/><ellipse cx="64.31899517009691" cy="121.79653978472754" rx="8.25" ry="24" fill="#FFD54F" transform="rotate(192.85714285714286 64.31899517009691 121.79653978472754)"/><ellipse cx="45.07248951078079" cy="112.52791115846543" rx="8.25" ry="24" fill="#FFD54F" transform="rotate(218.57142857142856 45.07248951078079 112.52791115846543)"/><ellipse cx="31.753494340683886" cy="95.82641947764279" rx="8.25" ry="24" fill="#FFD54F" transform="rotate(244.2857142857143 31.753494340683886 95.82641947764279)"/><ellipse cx="27" cy="75" rx="8.25" ry="24" fill="#FFD54F" transform="rotate(270 27 75)"/><ellipse cx="31.75349434068388" cy="54.17358052235721" rx="8.25" ry="24" fill="#FFD54F" transform="rotate(295.7142857142857 31.75349434068388 54.17358052235721)"/><ellipse cx="45.072489510780784" cy="37.47208884153457" rx="8.25" ry="24" fill="#FFD54F" transform="rotate(321.42857142857144 45.072489510780784 37.47208884153457)"/><ellipse cx="64.3189951700969" cy="28.203460215272464" rx="8.25" ry="24" fill="#FFD54F" transform="rotate(347.1428571428571 64.3189951700969 28.203460215272464)"/><ellipse cx="85.68100482990305" cy="28.203460215272457" rx="8.25" ry="24" fill="#FFD54F" transform="rotate(372.85714285714283 85.68100482990305 28.203460215272457)"/><ellipse cx="104.9275104892192" cy="37.472088841534564" rx="8.25" ry="24" fill="#FFD54F" transform="rotate(398.5714285714286 104.9275104892192 37.472088841534564)"/><ellipse cx="118.24650565931613" cy="54.17358052235724" rx="8.25" ry="24" fill="#FFD54F" transform="rotate(424.2857142857144 118.24650565931613 54.17358052235724)"/><circle cx="75" cy="75" r="30" fill="#6D4C41"/><circle cx="75" cy="54" r="1.8" fill="#4E342E"/><circle cx="64.5" cy="59.25" r="1.8" fill="#4E342E"/><circle cx="69.75" cy="59.25" r="1.8" fill="#4E342E"/><circle cx="75" cy="59.25" r="1.8" fill="#4E342E"/><circle cx="80.25" cy="59.25" r="1.8" fill="#4E342E"/><circle cx="85.5" cy="59.25" r="1.8" fill="#4E342E"/><circle cx="59.25" cy="64.5" r="1.8" fill="#4E342E"/><circle cx="64.5" cy="64.5" r="1.8" fill="#4E342E"/><circle cx="69.75" cy="64.5" r="1.8" fill="#4E342E"/><circle cx="75" cy="64.5" r="1.8" fill="#4E342E"/><circle cx="80.25" cy="64.5" r="1.8" fill="#4E342E"/><circle cx="85.5" cy="64.5" r="1.8" fill="#4E342E"/><circle cx="90.75" cy="64.5" r="1.8" fill="#4E342E"/><circle cx="59.25" cy="69.75" r="1.8" fill="#4E342E"/><circle cx="64.5" cy="69.75" r="1.8" fill="#4E342E"/><circle cx="69.75" cy="69.75" r="1.8" fill="#4E342E"/><circle cx="75" cy="69.75" r="1.8" fill="#4E342E"/><circle cx="80.25" cy="69.75" r="1.8" fill="#4E342E"/><circle cx="85.5" cy="69.75" r="1.8" fill="#4E342E"/><circle cx="90.75" cy="69.75" r="1.8" fill="#4E342E"/><circle cx="54" cy="75" r="1.8" fill="#4E342E"/><circle cx="59.25" cy="75" r="1.8" fill="#4E342E"/><circle cx="64.5" cy="75" r="1.8" fill="#4E342E"/><circle cx="69.75" cy="75" r="1.8" fill="#4E342E"/><circle cx="80.25" cy="75" r="1.8" fill="#4E342E"/><circle cx="85.5" cy="75" r="1.8" fill="#4E342E"/><circle cx="90.75" cy="75" r="1.8" fill="#4E342E"/><circle cx="96" cy="75" r="1.8" fill="#4E342E"/><circle cx="59.25" cy="80.25" r="1.8" fill="#4E342E"/><circle cx="64.5" cy="80.25" r="1.8" fill="#4E342E"/><circle cx="69.75" cy="80.25" r="1.8" fill="#4E342E"/><circle cx="75" cy="80.25" r="1.8" fill="#4E342E"/><circle cx="80.25" cy="80.25" r="1.8" fill="#4E342E"/><circle cx="85.5" cy="80.25" r="1.8" fill="#4E342E"/><circle cx="90.75" cy="80.25" r="1.8" fill="#4E342E"/><circle cx="59.25" cy="85.5" r="1.8" fill="#4E342E"/><circle cx="64.5" cy="85.5" r="1.8" fill="#4E342E"/><circle cx="69.75" cy="85.5" r="1.8" fill="#4E342E"/><circle cx="75" cy="85.5" r="1.8" fill="#4E342E"/><circle cx="80.25" cy="85.5" r="1.8" fill="#4E342E"/><circle cx="85.5" cy="85.5" r="1.8" fill="#4E342E"/><circle cx="90.75" cy="85.5" r="1.8" fill="#4E342E"/><circle cx="64.5" cy="90.75" r="1.8" fill="#4E342E"/><circle cx="69.75" cy="90.75" r="1.8" fill="#4E342E"/><circle cx="75" cy="90.75" r="1.8" fill="#4E342E"/><circle cx="80.25" cy="90.75" r="1.8" fill="#4E342E"/><circle cx="85.5" cy="90.75" r="1.8" fill="#4E342E"/><circle cx="75" cy="96" r="1.8" fill="#4E342E"/></svg>